<?xml version="1.0" standalone="no"?>
<!DOCTYPE svg PUBLIC "-//W3C//DTD SVG 20010904//EN"
 "http://www.w3.org/TR/2001/REC-SVG-20010904/DTD/svg10.dtd">
<svg version="1.0" xmlns="http://www.w3.org/2000/svg"
 width="300.000000pt" height="300.000000pt" viewBox="0 0 300.000000 300.000000"
 preserveAspectRatio="xMidYMid meet">
<metadata>
Created by potrace 1.10, written by Peter Selinger 2001-2011
</metadata>
<g transform="translate(0.000000,300.000000) scale(0.100000,-0.100000)"
fill="#000000" stroke="none">
<path d="M1409 2841 c9 -6 -2 -14 -40 -26 -70 -24 -133 -83 -157 -148 -11 -29
-32 -97 -47 -152 -15 -55 -29 -102 -31 -104 -2 -2 -31 7 -64 19 l-61 23 -27
-21 c-15 -12 -54 -38 -88 -57 -33 -19 -79 -55 -102 -80 -22 -25 -48 -45 -57
-45 -29 0 -91 -38 -127 -78 -99 -110 -155 -272 -192 -552 -8 -64 -21 -128 -29
-143 -10 -19 -13 -48 -9 -98 3 -49 0 -89 -13 -135 -31 -116 -1 -268 107 -534
28 -69 52 -130 55 -137 3 -7 -10 -14 -34 -18 -119 -21 -203 -56 -203 -85 0
-47 126 -78 545 -135 561 -77 623 -86 715 -105 175 -36 531 -83 594 -77 62 6
91 21 67 36 -8 5 -11 16 -6 30 4 14 1 31 -9 46 -14 21 -14 24 0 29 9 3 122 6
252 6 238 0 277 5 248 29 -11 10 -12 18 -4 35 18 41 -3 60 -122 105 -105 40
-111 44 -131 84 -11 23 -33 52 -47 65 -21 18 -24 24 -13 31 28 18 0 33 -50 26
l-49 -7 0 40 c0 22 -3 47 -6 56 -9 24 -42 20 -46 -6 -3 -18 -7 -14 -17 20 -12
42 -11 44 18 72 17 15 31 38 31 50 0 12 -15 67 -34 123 -18 56 -39 125 -46
154 l-13 52 50 48 c44 42 52 55 58 99 8 64 -6 120 -51 201 -20 36 -34 75 -34
95 0 36 -15 58 -39 58 -8 0 -40 24 -71 54 -41 39 -68 56 -96 62 -21 3 -51 13
-66 20 -15 8 -40 14 -56 14 -16 0 -35 7 -42 14 -6 8 -27 20 -45 26 -23 8 -37
20 -44 41 -7 19 -17 29 -31 29 -13 0 -44 25 -81 65 -49 52 -67 65 -91 65 l-31
0 29 28 c22 21 33 26 48 19 24 -12 34 4 42 64 7 55 11 61 45 76 20 9 33 28 50
77 13 36 29 66 36 66 7 0 17 -19 23 -41 l11 -41 20 20 c11 12 19 36 19 54 0
26 3 30 11 18 7 -11 8 -6 4 19 -5 25 -4 32 5 26 18 -11 3 30 -29 83 -28 48
-124 164 -162 198 -34 31 -108 52 -143 43 -20 -6 -35 -4 -50 6 -11 8 -30 15
-41 15 -15 0 -17 -2 -6 -9z m250 -1197 c10 -3 -13 -33 -74 -94 -49 -49 -91
-88 -93 -85 -4 3 16 178 23 201 3 11 90 -3 144 -22z m191 -447 c0 -12 16 -80
35 -152 19 -71 38 -161 42 -198 4 -52 10 -70 24 -78 15 -8 19 -21 19 -64 0
-29 -4 -57 -10 -60 -5 -3 -10 -28 -10 -55 0 -26 -3 -56 -6 -65 -6 -14 -8 -14
-20 4 -12 17 -12 23 3 48 22 39 11 77 -26 93 -26 11 -35 9 -65 -10 l-36 -21
-25 27 c-29 31 -31 46 -9 79 23 35 12 57 -73 146 -41 43 -73 83 -71 88 7 22
212 250 220 245 4 -3 8 -15 8 -27z m-419 -532 c43 -57 45 -58 92 -55 15 1 27
-2 27 -7 1 -4 5 -28 10 -53 5 -28 5 -63 -2 -93 -12 -57 -7 -57 -146 13 -52 27
-121 57 -153 67 -33 10 -59 21 -59 25 0 8 172 157 182 158 4 0 26 -25 49 -55z
m489 -40 c10 -12 9 -16 -4 -21 -20 -8 -66 3 -66 15 0 9 20 17 46 20 6 0 17 -6
24 -14z"/>
</g>
</svg>
